<svg width="36" height="36" viewBox="0 0 36 36" fill="none" xmlns="http://www.w3.org/2000/svg">
<circle cx="18" cy="18" r="18" fill="#CCEBFF"/>
<path d="M9.29701 11.2338C9.52243 10.2728 10.2728 9.52243 11.2338 9.29701V9.29701C12.0666 9.10165 12.9334 9.10165 13.7662 9.29701V9.29701C14.7272 9.52243 15.4776 10.2728 15.703 11.2338V11.2338C15.8983 12.0666 15.8983 12.9334 15.703 13.7662V13.7662C15.4776 14.7272 14.7272 15.4776 13.7662 15.703V15.703C12.9334 15.8983 12.0666 15.8983 11.2338 15.703V15.703C10.2728 15.4776 9.52243 14.7272 9.29701 13.7662V13.7662C9.10166 12.9334 9.10166 12.0666 9.29701 11.2338V11.2338Z" stroke="#333333" stroke-width="1.5"/>
<path d="M9.29701 22.2338C9.52243 21.2728 10.2728 20.5224 11.2338 20.297V20.297C12.0666 20.1017 12.9334 20.1017 13.7662 20.297V20.297C14.7272 20.5224 15.4776 21.2728 15.703 22.2338V22.2338C15.8983 23.0666 15.8983 23.9334 15.703 24.7662V24.7662C15.4776 25.7272 14.7272 26.4776 13.7662 26.703V26.703C12.9334 26.8983 12.0666 26.8983 11.2338 26.703V26.703C10.2728 26.4776 9.52243 25.7272 9.29701 24.7662V24.7662C9.10166 23.9334 9.10166 23.0666 9.29701 22.2338V22.2338Z" stroke="#333333" stroke-width="1.5"/>
<path d="M20.297 11.2338C20.5224 10.2728 21.2728 9.52243 22.2338 9.29701V9.29701C23.0666 9.10165 23.9334 9.10165 24.7662 9.29701V9.29701C25.7272 9.52243 26.4776 10.2728 26.703 11.2338V11.2338C26.8983 12.0666 26.8983 12.9334 26.703 13.7662V13.7662C26.4776 14.7272 25.7272 15.4776 24.7662 15.703V15.703C23.9334 15.8983 23.0666 15.8983 22.2338 15.703V15.703C21.2728 15.4776 20.5224 14.7272 20.297 13.7662V13.7662C20.1017 12.9334 20.1017 12.0666 20.297 11.2338V11.2338Z" stroke="#333333" stroke-width="1.5"/>
<path d="M20.297 22.2338C20.5224 21.2728 21.2728 20.5224 22.2338 20.297V20.297C23.0666 20.1017 23.9334 20.1017 24.7662 20.297V20.297C25.7272 20.5224 26.4776 21.2728 26.703 22.2338V22.2338C26.8983 23.0666 26.8983 23.9334 26.703 24.7662V24.7662C26.4776 25.7272 25.7272 26.4776 24.7662 26.703V26.703C23.9334 26.8983 23.0666 26.8983 22.2338 26.703V26.703C21.2728 26.4776 20.5224 25.7272 20.297 24.7662V24.7662C20.1017 23.9334 20.1017 23.0666 20.297 22.2338V22.2338Z" stroke="#333333" stroke-width="1.5"/>
</svg>
