<svg width="20" height="20" viewBox="0 0 20 20" fill="none" xmlns="http://www.w3.org/2000/svg">
<path d="M7.14177 2.5V4.59479M13.6916 2.5V4.59479M7.96051 12.7645H10.4167M7.96051 10.2507H12.8729M3.6111 12.7071C3.2408 11.0914 3.2408 9.41 3.6111 7.79436C4.12385 5.55721 5.83065 3.81043 8.01659 3.28566C9.59524 2.90668 11.2382 2.90668 12.8168 3.28566C15.0028 3.81043 16.7096 5.55721 17.2223 7.79436C17.5926 9.41 17.5926 11.0914 17.2223 12.7071C16.7096 14.9442 15.0028 16.691 12.8168 17.2158C11.2382 17.5947 9.59524 17.5947 8.01659 17.2158C5.83065 16.691 4.12385 14.9442 3.6111 12.7071Z" stroke="#0172BD" stroke-width="1.5" stroke-linecap="round"/>
</svg>
