<svg width="20" height="20" viewBox="0 0 20 20" fill="none" xmlns="http://www.w3.org/2000/svg">
<path d="M3.19435 12.7071L3.9254 12.5395L3.19435 12.7071ZM3.19435 7.79436L3.9254 7.96191L3.19435 7.79436ZM16.8056 7.79436L16.0745 7.96192L16.8056 7.79436ZM16.8056 12.7071L16.0745 12.5395L16.0745 12.5395L16.8056 12.7071ZM12.4001 17.2158L12.5752 17.945L12.4001 17.2158ZM7.59984 17.2158L7.77491 16.4865L7.59984 17.2158ZM7.59984 3.28566L7.77491 4.01494L7.59984 3.28566ZM12.4001 3.28566L12.5752 2.55638L12.4001 3.28566ZM7.47503 2.5C7.47503 2.08579 7.13924 1.75 6.72503 1.75C6.31081 1.75 5.97503 2.08579 5.97503 2.5H7.47503ZM5.97503 4.59479C5.97503 5.009 6.31081 5.34479 6.72503 5.34479C7.13924 5.34479 7.47503 5.009 7.47503 4.59479H5.97503ZM14.0249 2.5C14.0249 2.08579 13.6891 1.75 13.2749 1.75C12.8607 1.75 12.5249 2.08579 12.5249 2.5H14.0249ZM12.5249 4.59479C12.5249 5.009 12.8607 5.34479 13.2749 5.34479C13.6891 5.34479 14.0249 5.009 14.0249 4.59479H12.5249ZM3.9254 12.5395C3.58037 11.0341 3.58037 9.46728 3.9254 7.96191L2.46331 7.6268C2.06773 9.35272 2.06773 11.1487 2.46331 12.8746L3.9254 12.5395ZM16.0745 7.96192C16.4196 9.46728 16.4196 11.0341 16.0745 12.5395L17.5366 12.8746C17.9322 11.1487 17.9322 9.35272 17.5366 7.62681L16.0745 7.96192ZM12.225 16.4865C10.7614 16.8378 9.23849 16.8378 7.77491 16.4865L7.42477 17.945C9.1185 18.3517 10.8814 18.3517 12.5752 17.945L12.225 16.4865ZM7.77491 4.01494C9.23849 3.66359 10.7614 3.66359 12.225 4.01494L12.5752 2.55638C10.8814 2.14978 9.1185 2.14978 7.42476 2.55638L7.77491 4.01494ZM7.77491 16.4865C5.87324 16.03 4.37622 14.5065 3.9254 12.5395L2.46331 12.8746C3.03799 15.382 4.95456 17.352 7.42477 17.945L7.77491 16.4865ZM12.5752 17.945C15.0454 17.352 16.9619 15.382 17.5366 12.8746L16.0745 12.5395C15.6237 14.5065 14.1267 16.03 12.225 16.4865L12.5752 17.945ZM12.225 4.01494C14.1267 4.47146 15.6237 5.99497 16.0745 7.96192L17.5366 7.62681C16.9619 5.11945 15.0454 3.14939 12.5752 2.55638L12.225 4.01494ZM7.42476 2.55638C4.95456 3.14939 3.03799 5.11945 2.46331 7.6268L3.9254 7.96191C4.37622 5.99497 5.87324 4.47146 7.77491 4.01494L7.42476 2.55638ZM3.45009 7.64905H16.5498V6.14905H3.45009V7.64905ZM5.97503 2.5V4.59479H7.47503V2.5H5.97503ZM12.5249 2.5V4.59479H14.0249V2.5H12.5249Z" fill="#0172BD"/>
<path d="M11.2017 11.6033C11.5392 11.3633 11.7492 11.0033 11.7492 10.5158C11.7492 9.50327 10.9692 8.97827 10.0467 8.97827C9.12418 8.97827 8.33668 9.50327 8.33668 10.5158C8.33668 11.0033 8.55418 11.3633 8.88418 11.6033C8.42668 11.8808 8.16418 12.3383 8.16418 12.8708C8.16418 13.8383 8.87668 14.4383 10.0467 14.4383C11.2092 14.4383 11.9292 13.8383 11.9292 12.8708C11.9292 12.3383 11.6667 11.8808 11.2017 11.6033ZM10.0467 9.95327C10.4367 9.95327 10.7217 10.1783 10.7217 10.5683C10.7217 10.9508 10.4367 11.1908 10.0467 11.1908C9.65668 11.1908 9.37168 10.9508 9.37168 10.5683C9.37168 10.1783 9.65668 9.95327 10.0467 9.95327ZM10.0467 13.4633C9.55168 13.4633 9.19168 13.2083 9.19168 12.7358C9.19168 12.2708 9.55168 12.0158 10.0467 12.0158C10.5417 12.0158 10.9017 12.2708 10.9017 12.7358C10.9017 13.2083 10.5417 13.4633 10.0467 13.4633Z" fill="#0172BD"/>
</svg>
