<svg width="248" height="104" viewBox="0 0 248 104" fill="none" xmlns="http://www.w3.org/2000/svg">
<g clip-path="url(#clip0_450_2446)">
<path d="M65.1344 47.8876C69.1126 46.1157 70.7065 42.9348 70.7065 39.6301C70.7065 31.0054 64.3994 27.2139 55.9516 27.2139C49.1574 27.2139 42.3632 27.2139 35.6289 27.2139V70.0301C42.4231 70.0301 49.1574 70.0301 55.9516 70.0301C64.8267 70.0301 71.9884 66.973 71.9884 57.4303C71.9927 54.7404 70.1552 49.4161 65.1344 47.8876ZM43.5896 34.5534H55.9559C61.0964 34.5534 62.6902 37.8582 62.6902 39.8137C62.6902 42.2602 61.0365 44.4036 55.9559 44.4036H43.5896V34.5534ZM55.9516 62.5069H43.5853V51.4955H55.9516C59.2589 51.4955 63.9721 53.515 63.9721 57.3663C63.9721 61.4054 59.2589 62.5069 55.9516 62.5069Z" fill="black"/>
<path d="M115.274 51.8029V27.2737H107.254V51.8029C107.254 59.1424 103.459 63.6085 96.7849 63.6085C90.1147 63.6085 85.7049 59.5096 85.7049 51.8029V27.2737H77.6843V51.8029C77.6843 64.7101 86.4398 70.9481 96.7208 70.9481C107.497 70.9481 115.274 64.4624 115.274 51.8029Z" fill="black"/>
<path d="M131.256 27.2139H123.235V70.0301H131.256V27.2139Z" fill="black"/>
<path d="M146.925 27.2139H138.845V70.0301H168.961V62.5667H146.925V27.2139Z" fill="black"/>
<path d="M212.367 48.2548C212.183 37.6746 205.633 27.2139 190.942 27.2139C185.677 27.2139 179.375 27.2139 174.106 27.2139V70.0301C179.37 70.0301 185.677 70.0301 190.942 70.0301C205.94 70.0301 212.551 59.0827 212.367 48.2548ZM182.126 34.8609H190.942C200.249 34.8609 204.163 41.5301 204.346 48.195C204.53 55.1674 200.672 62.2636 190.942 62.2636H182.126V34.8609Z" fill="black"/>
<path d="M84.4016 90.0634H89.9267V104.486H93.2127V90.0634H98.7377V87.0789C93.687 87.0789 89.431 87.0789 84.4059 87.0789V90.0634H84.4016Z" fill="#F25309"/>
<path d="M120.556 94.4398H111.993V87.1045H108.711V104.512H111.993V97.4756H120.556V104.512H123.812V87.1045H120.556V94.4398Z" fill="#F25309"/>
<path d="M138.144 87.0831H134.884V104.486H138.144V87.0831Z" fill="#F25309"/>
<path d="M156.582 93.8463C154.493 93.5987 152.702 93.176 152.702 91.656C152.702 90.3623 153.873 89.3419 156.309 89.3419C158.202 89.3419 159.843 90.2854 160.441 91.2803L163.052 89.9396C161.731 87.254 158.92 86.4812 156.211 86.4812C153.001 86.5068 149.468 87.9713 149.468 91.5535C149.468 95.456 152.754 96.4039 156.309 96.8266C158.625 97.0742 160.338 97.7488 160.338 99.3884C160.338 101.28 158.398 101.997 156.33 101.997C154.215 101.997 152.198 101.152 151.429 99.2389L148.69 100.656C149.985 103.837 152.719 104.935 156.279 104.935C160.159 104.935 163.594 103.269 163.594 99.3884C163.599 95.2382 160.214 94.2904 156.582 93.8463Z" fill="#F25309"/>
<path d="M0.00439453 0.233932V97.9281H67.006V94.222H3.70913V3.94H244.291V94.222H180.994V97.9281H247.996V0.233932H0.00439453Z" fill="#1079C1"/>
</g>
<defs>
<clipPath id="clip0_450_2446">
<rect width="248" height="104" fill="white"/>
</clipPath>
</defs>
</svg>
