<svg width="36" height="36" viewBox="0 0 36 36" fill="none" xmlns="http://www.w3.org/2000/svg">
<circle cx="18" cy="18" r="18" fill="#CCEBFF"/>
<path d="M14.1511 16.3501L16.7216 18.1866C17.4864 18.733 18.5136 18.733 19.2783 18.1866L21.8489 16.3501M8.88539 21.1513C8.37154 19.0819 8.37154 16.9181 8.88539 14.8487C9.55805 12.1398 11.706 10.0453 14.4306 9.44162L14.8844 9.34105C16.9366 8.88632 19.0634 8.88632 21.1156 9.34105L21.5694 9.44162C24.294 10.0453 26.442 12.1398 27.1146 14.8488C27.6285 16.9182 27.6285 19.0819 27.1146 21.1512C26.442 23.8602 24.294 25.9547 21.5694 26.5584L21.1156 26.659C19.0634 27.1137 16.9366 27.1137 14.8844 26.659L14.4306 26.5584C11.706 25.9547 9.55805 23.8602 8.88539 21.1513Z" stroke="black" stroke-width="1.5" stroke-linecap="round"/>
</svg>
