<svg width="36" height="36" viewBox="0 0 36 36" fill="none" xmlns="http://www.w3.org/2000/svg">
<circle cx="18" cy="18" r="18" fill="#CCEBFF"/>
<path d="M27 18H23M25 20L25 16" stroke="black" stroke-width="1.5" stroke-linecap="round"/>
<path d="M9 25.1115C9 22.6984 10.6973 20.643 13.004 20.2627L13.2118 20.2284C15.0589 19.9239 16.9411 19.9239 18.7882 20.2284L18.996 20.2627C21.3027 20.643 23 22.6984 23 25.1115C23 26.1545 22.1815 27 21.1719 27H10.8281C9.81848 27 9 26.1545 9 25.1115Z" stroke="black" stroke-width="1.5"/>
<path d="M20.0834 12.9375C20.0834 15.1121 18.2552 16.875 16 16.875C13.7449 16.875 11.9167 15.1121 11.9167 12.9375C11.9167 10.7629 13.7449 9 16 9C18.2552 9 20.0834 10.7629 20.0834 12.9375Z" stroke="black" stroke-width="1.5"/>
</svg>
