<svg width="36" height="36" viewBox="0 0 36 36" fill="none" xmlns="http://www.w3.org/2000/svg">
<circle cx="18" cy="18" r="18" fill="#CCEBFF"/>
<path d="M18 9V10.0047M15.0091 23.9034C16.9968 24.1269 19.0032 24.1269 20.9909 23.9034C20.9768 24.0967 20.9465 24.2887 20.9001 24.4772L20.8182 24.8106C20.5614 25.855 19.7455 26.6678 18.7039 26.917C18.2411 27.0277 17.7589 27.0277 17.2961 26.917C16.2545 26.6678 15.4386 25.855 15.1818 24.8106L15.0999 24.4772C15.0535 24.2887 15.0232 24.0967 15.0091 23.9034ZM12.0278 14.6326C12.5821 12.5867 14.15 10.9532 16.1584 10.3022C17.3927 9.90211 18.7349 9.90145 19.9671 10.3084C21.9398 10.9599 23.45 12.5708 23.9793 14.5883L24.5625 16.8112L25.0298 18.9275C25.1737 19.5793 25.3696 20.2498 25.4728 20.9094C25.4907 21.0237 25.5 21.141 25.5 21.2604C25.5 22.3266 24.7525 23.2453 23.7124 23.4572L23.3448 23.532C19.8175 24.2506 16.1825 24.2506 12.6552 23.532L12.2876 23.4572C11.2475 23.2453 10.5 22.3266 10.5 21.2604C10.5 21.141 10.5093 21.0237 10.5272 20.9094C10.6304 20.2498 10.8263 19.5793 10.9702 18.9275L11.4375 16.8112L12.0278 14.6326Z" stroke="black" stroke-width="1.5" stroke-linecap="round"/>
</svg>
