<svg width="20" height="20" viewBox="0 0 20 20" fill="none" xmlns="http://www.w3.org/2000/svg">
<path d="M11.8354 12.7866C12.4415 12.6489 12.9993 12.395 13.483 12.05L14.4387 15.8058C14.7257 16.9334 13.5194 17.8705 12.4451 17.3546L10.8345 16.581C10.3087 16.3285 9.69136 16.3285 9.16562 16.581L7.55495 17.3546C6.48065 17.8705 5.27441 16.9334 5.56136 15.8058L6.51709 12.05C7.00075 12.395 7.55862 12.6489 8.16465 12.7866M11.8354 12.7866C10.6282 13.0608 9.37186 13.0608 8.16465 12.7866M11.8354 12.7866C13.507 12.4068 14.8122 11.1427 15.2043 9.52373C15.4875 8.35453 15.4875 7.13773 15.2043 5.96853C14.8122 4.34956 13.507 3.08545 11.8354 2.70569C10.6282 2.43144 9.37186 2.43144 8.16465 2.70569C6.49306 3.08545 5.18786 4.34956 4.79575 5.96852C4.51258 7.13773 4.51258 8.35453 4.79575 9.52373C5.18786 11.1427 6.49306 12.4068 8.16465 12.7866" stroke="#0172BD" stroke-width="1.5"/>
</svg>
