<svg width="20" height="20" viewBox="0 0 20 20" fill="none" xmlns="http://www.w3.org/2000/svg">
<path d="M17.5 9.99992H14.1666M15.8333 11.6666L15.8333 8.33325" stroke="#0172BD" stroke-width="1.5" stroke-linecap="round"/>
<path d="M2.5 15.9262C2.5 13.9153 3.91444 12.2025 5.8367 11.8855L6.00985 11.857C7.5491 11.6032 9.11757 11.6032 10.6568 11.857L10.83 11.8855C12.7522 12.2025 14.1667 13.9153 14.1667 15.9262C14.1667 16.7954 13.4846 17.5 12.6432 17.5H4.02344C3.18207 17.5 2.5 16.7954 2.5 15.9262Z" stroke="#0172BD" stroke-width="1.5"/>
<path d="M11.7361 5.78125C11.7361 7.59343 10.2127 9.0625 8.33335 9.0625C6.45405 9.0625 4.93057 7.59343 4.93057 5.78125C4.93057 3.96907 6.45405 2.5 8.33335 2.5C10.2127 2.5 11.7361 3.96907 11.7361 5.78125Z" stroke="#0172BD" stroke-width="1.5"/>
</svg>
