<svg width="24" height="24" viewBox="0 0 24 24" fill="none" xmlns="http://www.w3.org/2000/svg">
<rect width="24" height="24" rx="5" fill="white"/>
<g clip-path="url(#clip0_450_2445)">
<path d="M7.25276 11.6837C7.57359 11.5474 7.70213 11.3027 7.70213 11.0485C7.70213 10.385 7.19349 10.0934 6.51222 10.0934C5.9643 10.0934 5.41638 10.0934 4.87329 10.0934V13.3869C5.42121 13.3869 5.9643 13.3869 6.51222 13.3869C7.22795 13.3869 7.80551 13.1518 7.80551 12.4177C7.80585 12.2108 7.65767 11.8012 7.25276 11.6837ZM5.51528 10.658H6.51256C6.92712 10.658 7.05565 10.9122 7.05565 11.0626C7.05565 11.2508 6.92229 11.4157 6.51256 11.4157H5.51528V10.658ZM6.51222 12.8082H5.51494V11.9612H6.51222C6.77894 11.9612 7.15903 12.1165 7.15903 12.4128C7.15903 12.7235 6.77894 12.8082 6.51222 12.8082Z" fill="black"/>
<path d="M11.2961 11.9849V10.098H10.6493V11.9849C10.6493 12.5494 10.3433 12.893 9.80502 12.893C9.2671 12.893 8.91147 12.5777 8.91147 11.9849V10.098H8.26465V11.9849C8.26465 12.9777 8.97074 13.4576 9.79985 13.4576C10.6689 13.4576 11.2961 12.9587 11.2961 11.9849Z" fill="black"/>
<path d="M12.585 10.0934H11.9382V13.3869H12.585V10.0934Z" fill="black"/>
<path d="M13.8487 10.0934H13.197V13.3869H15.6258V12.8128H13.8487V10.0934Z" fill="black"/>
<path d="M19.1263 11.7119C19.1115 10.8981 18.5832 10.0934 17.3985 10.0934C16.974 10.0934 16.4657 10.0934 16.0408 10.0934V13.3869C16.4653 13.3869 16.974 13.3869 17.3985 13.3869C18.6081 13.3869 19.1412 12.5448 19.1263 11.7119ZM16.6876 10.6816H17.3985C18.149 10.6816 18.4647 11.1946 18.4795 11.7073C18.4943 12.2437 18.1832 12.7895 17.3985 12.7895H16.6876V10.6816Z" fill="black"/>
<path d="M8.8064 14.928H9.25197V16.0374H9.51697V14.928H9.96253V14.6984C9.55522 14.6984 9.21199 14.6984 8.80674 14.6984V14.928H8.8064Z" fill="#F25309"/>
<path d="M11.7221 15.2646H11.0315V14.7003H10.7668V16.0394H11.0315V15.4981H11.7221V16.0394H11.9847V14.7003H11.7221V15.2646Z" fill="#F25309"/>
<path d="M13.1406 14.6987H12.8777V16.0374H13.1406V14.6987Z" fill="#F25309"/>
<path d="M14.6274 15.219C14.4589 15.1999 14.3145 15.1674 14.3145 15.0505C14.3145 14.951 14.409 14.8725 14.6054 14.8725C14.758 14.8725 14.8904 14.945 14.9386 15.0216L15.1492 14.9184C15.0427 14.7119 14.8159 14.6524 14.5975 14.6524C14.3387 14.6544 14.0537 14.767 14.0537 15.0426C14.0537 15.3428 14.3187 15.4157 14.6054 15.4482C14.7922 15.4673 14.9303 15.5191 14.9303 15.6453C14.9303 15.7908 14.7739 15.8459 14.6071 15.8459C14.4365 15.8459 14.2739 15.7809 14.2119 15.6338L13.991 15.7428C14.0954 15.9875 14.3159 16.0719 14.603 16.0719C14.9159 16.0719 15.1929 15.9438 15.1929 15.6453C15.1933 15.326 14.9204 15.2531 14.6274 15.219Z" fill="#F25309"/>
<path d="M2.00024 8.01801V15.5329H7.4036V15.2479H2.29901V8.30309H21.7008V15.2479H16.5962V15.5329H21.9995V8.01801H2.00024Z" fill="#1079C1"/>
</g>
<defs>
<clipPath id="clip0_450_2445">
<rect width="20" height="8" fill="white" transform="translate(2 8)"/>
</clipPath>
</defs>
</svg>
